<svg height="512pt" viewBox="-59 0 511 512" width="512pt" xmlns="http://www.w3.org/2000/svg"><path d="m321.203125 340.257812h-46.054687v63.53125c0 8.28125-6.714844 15-15 15h-126.140626c-8.285156 0-15-6.71875-15-15v-63.53125h-46.054687c-39.953125 0-72.453125 32.5-72.453125 72.449219v26.839844c0 39.953125 32.5 72.453125 72.453125 72.453125h248.25c39.949219 0 72.453125-32.5 72.453125-72.453125v-26.839844c0-39.949219-32.5-72.449219-72.453125-72.449219zm0 0"/><path d="m149.007812 388.789062h96.140626v-212.464843c0-8.285157 6.714843-15 15-15h47.007812c5.070312 0 7.351562-3.527344 8.097656-5.039063.75-1.515625 2.152344-5.476562-.9375-9.496094l-110.078125-143.261718c-2.359375-3.070313-5.5-3.527344-7.160156-3.527344s-4.800781.457031-7.160156 3.527344l-110.078125 143.261718c-3.089844 4.023438-1.683594 7.980469-.9375 9.496094s3.03125 5.039063 8.097656 5.039063h47.007812c8.285157 0 15 6.714843 15 15zm0 0"/></svg>