<?xml version="1.0" encoding="utf-8"?>
<!-- Generator: Adobe Illustrator 23.0.3, SVG Export Plug-In . SVG Version: 6.00 Build 0)  -->
<svg version="1.1" id="Layer_1" xmlns="http://www.w3.org/2000/svg" xmlns:xlink="http://www.w3.org/1999/xlink" x="0px" y="0px"
	 viewBox="0 0 25 31.3" style="enable-background:new 0 0 25 31.3;" xml:space="preserve">
<title>mail</title>
<style>
	.st0{
		fill: #ffffff;
	}
</style>
<g>
	<path class="st0" d="M20.5,5h-16C3.1,5,2,6.1,2,7.5v10C2,18.9,3.1,20,4.5,20h16c1.4,0,2.5-1.1,2.5-2.5v-10C23,6.1,21.9,5,20.5,5z M22,17.5
		c0,0.8-0.7,1.5-1.5,1.5h-16C3.7,19,3,18.3,3,17.5v-7.3l8.1,5.6c0.9,0.6,2,0.6,2.9,0l8.1-5.6V17.5z M22,9l-8.6,6
		c-0.5,0.4-1.2,0.4-1.7,0L3,9V7.5C3,6.7,3.7,6,4.5,6h16C21.3,6,22,6.7,22,7.5V9z"/>
</g>
<!-- <text transform="matrix(1 0 0 1 0 40)" style="font-family:'HelveticaNeueLTStd-Bd'; font-size:5px;">Created by Kholed fadhlulloh</text>
<text transform="matrix(1 0 0 1 0 45)" style="font-family:'HelveticaNeueLTStd-Bd'; font-size:5px;">from the Noun Project</text> -->
</svg>
