<?xml version="1.0" encoding="utf-8"?>
<!-- Generator: Adobe Illustrator 23.0.3, SVG Export Plug-In . SVG Version: 6.00 Build 0)  -->
<svg version="1.1" id="Layer_1" xmlns="http://www.w3.org/2000/svg" xmlns:xlink="http://www.w3.org/1999/xlink" x="0px" y="0px"
	 viewBox="0 0 375 665" style="enable-background:new 0 0 375 665;" xml:space="preserve">
<style>
.st0{
	fill: #ffffff;
}
</style>
<g id="Group_1864" transform="translate(0 1)">
	<path class="st0" id="Path_72" d="M180.6,196.7c-35.5,0-64.2,28.8-64.2,64.2s28.8,64.2,64.2,64.2s64.2-28.8,64.2-64.2
		C244.8,225.5,216.1,196.7,180.6,196.7z M194.4,230.1c-4.5,0.8-9.2,1.2-13.8,1.2c-4.6,0-9.2-0.4-13.8-1.2c3.5-16,9.3-25.4,13.8-25.4
		C185.1,204.7,190.9,214.1,194.4,230.1z M194.3,206.4c9.6,2.4,18.5,7.4,25.6,14.3c-5.5,3.4-11.4,5.9-17.6,7.6
		C200.8,220.6,198.1,213.3,194.3,206.4z M163.9,256.9c0.1-6.3,0.6-12.7,1.6-18.9c5,0.9,10.2,1.3,15.3,1.3c5.1,0,10.2-0.5,15.3-1.3
		c0.9,6.3,1.4,12.6,1.6,18.9H163.9z M197.4,265c-0.1,6.3-0.6,12.7-1.5,18.9c-5.1-0.9-10.2-1.3-15.3-1.3c-5.1,0-10.2,0.5-15.3,1.3
		c-0.9-6.3-1.4-12.6-1.5-18.9H197.4z M159,228.3c-6.2-1.6-12.1-4.2-17.6-7.6c7.1-6.9,15.9-11.9,25.6-14.3
		C163.2,213.3,160.5,220.7,159,228.3z M157.6,236.3c-1.1,6.8-1.7,13.8-1.8,20.7h-31.1c0.8-11,4.8-21.4,11.5-30.1
		C142.8,231.1,150,234.3,157.6,236.3z M155.7,265c0.2,6.9,0.8,13.8,1.8,20.7c-7.6,2-14.9,5.2-21.5,9.5c-6.6-8.7-10.6-19.2-11.4-30.2
		H155.7z M159,293.5c1.5,7.7,4.2,15.1,8,21.9c-9.6-2.4-18.5-7.4-25.6-14.3C146.8,297.7,152.8,295.1,159,293.5L159,293.5z
		 M166.8,291.7c9.1-1.6,18.5-1.6,27.6,0c-3.5,16-9.3,25.4-13.8,25.4C176.1,317.2,170.3,307.7,166.8,291.7L166.8,291.7z M202.2,293.5
		c6.2,1.6,12.2,4.2,17.6,7.7c-7.1,6.9-15.9,11.8-25.5,14.3C198,308.6,200.7,301.2,202.2,293.5L202.2,293.5z M203.6,285.5
		c1.1-6.8,1.7-13.8,1.8-20.7h31.1c-0.8,11-4.8,21.4-11.5,30.2C218.4,290.7,211.2,287.5,203.6,285.5L203.6,285.5z M205.5,256.9
		c-0.2-6.9-0.8-13.8-1.8-20.7c7.6-2,14.9-5.2,21.5-9.5c6.7,8.7,10.7,19.2,11.5,30.2L205.5,256.9z"/>
</g>
</svg>
