<?xml version="1.0" encoding="utf-8"?>
<!-- Generator: Adobe Illustrator 23.0.3, SVG Export Plug-In . SVG Version: 6.00 Build 0)  -->
<svg version="1.1" id="Layer_1" xmlns="http://www.w3.org/2000/svg" xmlns:xlink="http://www.w3.org/1999/xlink" x="0px" y="0px"
	 viewBox="0 0 375 375" style="enable-background:new 0 0 375 375;" xml:space="preserve">
<style type="text/css">
	.st0{fill:#0077B5;}
</style>
<path id="Path_1409" class="st0" d="M168.2,82.9c-40.7,0-73.6,33-73.6,73.6s33,73.6,73.6,73.6s73.6-33,73.6-73.6
	S208.8,82.9,168.2,82.9z M148.5,192.1h-16.2v-52.2h16.2V192.1z M140.3,133.1c-5.3,0-9.7-4.2-9.7-9.6c0-5.3,4.2-9.7,9.6-9.7
	c5.3,0,9.7,4.2,9.7,9.6c0,0,0,0.1,0,0.1C149.9,128.8,145.7,133.1,140.3,133.1C140.4,133.1,140.3,133.1,140.3,133.1z M209.1,192.2
	H193v-27.4c0-7.5-2.9-11.7-8.8-11.7c-6.5,0-9.9,4.4-9.9,11.7v27.4h-15.5v-52.2h15.5v7c3.4-5.4,9.3-8.7,15.7-8.6c11,0,19,6.7,19,20.8
	L209.1,192.2L209.1,192.2z"/>
</svg>
