<?xml version="1.0" encoding="utf-8"?>
<!-- Generator: Adobe Illustrator 23.0.3, SVG Export Plug-In . SVG Version: 6.00 Build 0)  -->
<svg version="1.1" id="Layer_1" xmlns="http://www.w3.org/2000/svg" xmlns:xlink="http://www.w3.org/1999/xlink" x="0px" y="0px"
	 viewBox="0 0 375 665" style="enable-background:new 0 0 375 665;" xml:space="preserve">
<path id="Path_82" d="M225.2,197.8h-89.6c-7.7-0.1-13.9,6.1-14,13.7c0,0,0,0,0,0v54.9c0.1,7.7,6.3,13.8,14,13.7c0,0,0,0,0,0h89.6
	c7.7,0.1,13.9-6.1,14-13.7c0,0,0,0,0,0v-54.9C239.2,203.9,232.9,197.8,225.2,197.8C225.2,197.8,225.2,197.8,225.2,197.8z
	 M233.6,266.5c0,4.6-3.8,8.3-8.4,8.2h-89.6c-4.6,0-8.4-3.6-8.4-8.2c0,0,0,0,0,0v-40.2l45.2,31c4.8,3.3,11.2,3.3,16,0l45.2-31
	L233.6,266.5z M233.6,219.8l-48.4,32.9c-2.9,2-6.7,2-9.6,0l-48.4-32.9v-8.2c0-4.6,3.8-8.3,8.4-8.2h89.6c4.6,0,8.4,3.6,8.4,8.2
	L233.6,219.8z"/>
</svg>
