<?xml version="1.0" encoding="utf-8"?>
<!-- Generator: Adobe Illustrator 23.0.3, SVG Export Plug-In . SVG Version: 6.00 Build 0)  -->
<svg version="1.1" id="Layer_1" xmlns="http://www.w3.org/2000/svg" xmlns:xlink="http://www.w3.org/1999/xlink" x="0px" y="0px"
	 viewBox="0 0 375 375" style="enable-background:new 0 0 375 375;" xml:space="preserve">
<style type="text/css">
	.st0{fill:#B0B0B1;}
</style>
<g id="Group_1940" transform="translate(-2.5 -2.5)">
	<path id="Path_132" class="st0" d="M210.4,193.2l-19.7-7.5c-4.6-1.7-6.9-6.8-5.2-11.4c0.4-1.2,1.1-2.2,2-3.1c1.7-1.7,4-2.6,6.4-2.5
		h7.7c4-0.1,7.5,2.6,8.5,6.4c1.2,4.2,5.6,6.6,9.8,5.4c0,0,0,0,0,0c4.2-1.1,6.6-5.4,5.5-9.5c0-0.1-0.1-0.2-0.1-0.3
		c-2.6-9.2-10.3-16.1-19.7-17.6v-6.6c0.2-4.4-3.2-8.1-7.6-8.2c-4.4-0.2-8.1,3.2-8.2,7.6c0,0.2,0,0.4,0,0.6v6.8
		c-5,0.9-9.7,3.2-13.3,6.8c-9.6,9.7-9.5,25.3,0.2,34.9c2.4,2.4,5.3,4.3,8.5,5.5l19.7,7.5c4.6,1.7,7,6.7,5.3,11.4
		c-1.3,3.5-4.7,5.9-8.4,5.9h-7.7c-4,0.1-7.5-2.6-8.5-6.4c-1.2-4.2-5.6-6.6-9.9-5.4c-4.2,1.2-6.6,5.6-5.4,9.9l0,0
		c2.6,9.1,10.2,16,19.5,17.6v6.6c-0.2,4.4,3.2,8.1,7.6,8.2c4.4,0.2,8.1-3.2,8.2-7.6c0-0.2,0-0.4,0-0.6v-6.6
		c13.5-2.3,22.6-15,20.3-28.5C224.4,203.6,218.5,196.4,210.4,193.2z"/>
	<path id="Path_133" class="st0" d="M197.6,105.1c-50.7,0-91.8,41.1-91.8,91.8s41.1,91.8,91.8,91.8s91.8-41.1,91.8-91.8
		C289.4,146.2,248.3,105.1,197.6,105.1z M197.6,272.9c-42,0-76-34-76-76c0-42,34-76,76-76c42,0,76,34,76,76v0
		C273.6,238.9,239.6,272.9,197.6,272.9z"/>
</g>
</svg>
