<?xml version="1.0" encoding="utf-8"?>
<!-- Generator: Adobe Illustrator 23.0.3, SVG Export Plug-In . SVG Version: 6.00 Build 0)  -->
<svg version="1.1" id="Layer_1" xmlns="http://www.w3.org/2000/svg" xmlns:xlink="http://www.w3.org/1999/xlink" x="0px" y="0px"
	 viewBox="0 0 375 665" style="enable-background:new 0 0 375 665;" xml:space="preserve">
<style>
	.st0{
		fill: #ffffff;
	}	
</style>
<path class="st0" id="Path_1396" d="M178.7,278.2c2-2.9,2-6.7,0.1-9.7l-12.6-19.8c-0.7-1.1-2.1-1.6-3.4-1.2l-15,5c-7.6,2.5-11.9,10.7-9.5,18.4
	c6,17.7,16.2,33.6,29.6,46.5c12.9,13.4,28.9,23.6,46.5,29.6c1.4,0.4,2.9,0.7,4.4,0.7c6.4,0,12-4.1,14-10.2l5-15
	c0.4-1.3-0.1-2.7-1.2-3.4l-19.8-12.6c-3-1.9-6.8-1.9-9.7,0.1l-6.3,4.2c-0.9,0.6-2.2,0.7-3.2,0.1c-4.7-2.9-9-6.3-12.9-10.2
	c-3.9-3.9-7.3-8.2-10.2-12.9c-0.6-1-0.6-2.2,0.1-3.2L178.7,278.2z M173.8,274.9l-4.2,6.3c-1.9,2.9-2,6.6-0.2,9.6
	c3.2,5.1,6.9,9.8,11.1,14c4.2,4.2,8.9,7.9,14,11.1c3,1.8,6.7,1.7,9.6-0.2l6.3-4.2c1-0.6,2.3-0.6,3.2,0l17.8,11.4l-4.3,12.7
	c-1.5,4.6-6.4,7.1-11,5.7c-16.7-5.7-31.9-15.4-44.1-28.2c-12.8-12.2-22.4-27.4-28.1-44.1c-1.4-4.6,1.2-9.5,5.7-11l12.8-4.3
	l11.3,17.8C174.5,272.7,174.4,273.9,173.8,274.9z"/>
</svg>
