<?xml version="1.0" encoding="utf-8"?>
<!-- Generator: Adobe Illustrator 23.0.3, SVG Export Plug-In . SVG Version: 6.00 Build 0)  -->
<svg version="1.1" id="Layer_1" xmlns="http://www.w3.org/2000/svg" xmlns:xlink="http://www.w3.org/1999/xlink" x="0px" y="0px"
	 viewBox="0 0 375 375" style="enable-background:new 0 0 375 375;" xml:space="preserve">
	 <style>
		.st0{
			fill: #ffffff;
		}
	 </style>
<g id="XMLID_1_">
	<g>
		<path class="st0" d="M250.9,188c1.3,1.1,1.5,3.1,0.4,4.4c-0.1,0.2-0.3,0.3-0.4,0.4l-46.9,39c-1.3,1.1-3.3,0.9-4.4-0.4c-0.5-0.6-0.7-1.3-0.7-2
			v-18.6c-1.5,0-2.5,0-5.9,0.2c-6.7,0.6-13.3,1.6-19.8,3c-18.5,3.7-35.8,12-50.3,24c-1.3,1.1-3.3,1-4.4-0.3c-0.7-0.8-1-2-0.6-3
			c13.1-40.2,53-56.5,81.1-63.9v-19.5c0-1.7,1.4-3.1,3.1-3.1c0.1,0,0.3,0,0.4,0c0.6,0.1,1.2,0.3,1.6,0.7L250.9,188z"/>
	</g>
	<g>
	</g>
</g>
</svg>
