<?xml version="1.0" encoding="utf-8"?>
<!-- Generator: Adobe Illustrator 23.0.3, SVG Export Plug-In . SVG Version: 6.00 Build 0)  -->
<svg version="1.1" id="Layer_1" xmlns="http://www.w3.org/2000/svg" xmlns:xlink="http://www.w3.org/1999/xlink" x="0px" y="0px"
	 viewBox="20 20 60 60" style="enable-background:new 0 0 100 125;" xml:space="preserve">
<style type="text/css">
	.st0{font-family:'HelveticaNeueLTStd-Bd';}
	.st1{fill:#939393; opacity: 1;}
</style>
<title>Bell v4.2</title>
<desc>Created with Sketch.</desc>
<g>
	<g id="XMLID_1_">
		<g>
			<path class="st1" d="M73,68.3H27v-3c0-1.7,1.4-3,3-3c1.6,0,3-1.4,3-3v-12c0-7.8,5.3-14.5,12.8-16.5l0.8-0.2v-2.8c0-2.3,2.2-4.1,4.6-3.3
				c1.5,0.5,2.4,1.9,2.4,3.4v2.8l0.8,0.2C61.7,32.7,67,39.5,67,47.3v12c0,1.6,1.3,3,3,3c1.7,0,3,1.3,3,3V68.3z"/>
			<path class="st1" d="M50,75.8c-3.2,0-5.7-2.4-6-5.5h12C55.7,73.3,53.2,75.8,50,75.8z" />
		</g>
		<g>
		</g>
	</g>
</g>
<!-- <text transform="matrix(1 0 0 1 0 115)" class="st0 st1">Created by Landan Lloyd</text>
<text transform="matrix(1 0 0 1 0 120)" class="st0 st1">from the Noun Project</text> -->
</svg>
