<?xml version="1.0" encoding="utf-8"?>
<!-- Generator: Adobe Illustrator 22.1.0, SVG Export Plug-In . SVG Version: 6.00 Build 0)  -->
<svg version="1.1" id="Layer_1" xmlns="http://www.w3.org/2000/svg" xmlns:xlink="http://www.w3.org/1999/xlink" x="0px" y="0px"
	 viewBox="0 0 558.2 84.2" style="enable-background:new 0 0 558.2 84.2;" xml:space="preserve">
<style type="text/css">
	.st0{fill:#231F20;}
	.st1{fill:#C61C0A;}
</style>
<title>CareerToGoLogotype_pos</title>
<path class="st0" d="M0,39.2c0-14.8,11.9-26.4,27.1-26.4c8.6,0,16.6,4.1,20.5,10c0.8,1.1,1.2,2.4,1.2,3.7c0,3.4-2.8,6.1-6.1,6.1
	c-1.8,0.1-3.6-0.7-4.7-2.2c-2.6-3.2-6.5-5.1-10.6-5.1c-7.8,0-13.3,5.7-13.3,13.8s5.5,13.9,13.3,13.9c4.1-0.1,8-1.9,10.6-5.1
	c1.1-1.4,2.9-2.2,4.7-2.2c3.4,0,6.1,2.8,6.1,6.1c0,1.3-0.4,2.5-1.1,3.5c-4.2,6.5-11.6,10.3-20.6,10.3C11.9,65.8,0,54,0,39.2z"/>
<path class="st0" d="M101.9,34.5v24.4c0.2,3.6-2.6,6.7-6.3,6.8c-0.1,0-0.3,0-0.4,0c-3.2,0.1-6-2.2-6.7-5.3
	c-3.7,3.5-8.8,5.4-14.8,5.4c-10.4,0-17.5-6.1-17.5-15.2s7.2-14.7,19.1-14.7H88v-2.2c0-5.6-3.4-8.9-9.5-8.9c-3.6,0-7.1,1.4-9.7,3.8
	c-1.1,1-2.6,1.6-4.1,1.6c-3.2,0.1-5.8-2.4-5.9-5.5c0,0,0,0,0-0.1c0-2,1-3.8,2.9-5.5c4.3-4,11-6.2,18.3-6.2
	C93.9,12.8,101.9,20.7,101.9,34.5z M88,45.6V45H77.2c-4.6,0-7.1,1.7-7.1,5.1s2.8,5.5,7.3,5.5C83.4,55.7,88,51.4,88,45.6z"/>
<path class="st0" d="M145.3,19.5c0,3.7-2.6,6.2-6.4,6.7c-7.4,0.5-11.9,5.3-11.9,13.1v19.4c0.2,3.7-2.7,6.9-6.5,7.1
	c-0.1,0-0.2,0-0.4,0c-3.8,0.1-6.9-2.9-7-6.7c0-0.1,0-0.2,0-0.3v-39c-0.1-3.7,2.8-6.8,6.5-6.9c0.1,0,0.2,0,0.3,0
	c3.5,0,6.5,2.7,6.7,6.2c3.1-3.6,7.6-5.7,12.4-5.7c3.3-0.2,6.1,2.2,6.3,5.5C145.3,19,145.3,19.3,145.3,19.5z"/>
<path class="st0" d="M198.3,36.5v0.3c0,4.3-3.1,7.1-7.6,7.1h-28.8c1.6,6.3,6.8,10,14.2,10c3.7,0,7.4-1,10.5-3c0.9-0.6,1.9-0.9,3-0.9
	c3-0.1,5.5,2.3,5.6,5.3c0,0.1,0,0.2,0,0.2c0,2.2-1,3.9-3.5,5.5c-4.8,3.1-10.4,4.8-16.1,4.7c-16,0-27.7-11.4-27.7-26.5
	s11.4-26.5,26.3-26.5C188.1,12.8,198.3,22.8,198.3,36.5z M161.9,34.2h23c-0.2-6-4.5-10.2-11-10.2C167.9,24,163.4,27.9,161.9,34.2z"
	/>
<path class="st0" d="M256.5,36.5v0.3c0,4.3-3.1,7.1-7.6,7.1h-28.9c1.6,6.3,6.8,10,14.2,10c3.7,0,7.4-1,10.5-3c2.5-1.7,6-1,7.7,1.5
	c0.6,0.9,0.9,2,0.9,3.1c0,2.2-1,3.9-3.5,5.5c-4.8,3.2-10.4,4.8-16.1,4.8c-16,0-27.7-11.4-27.7-26.5s11.4-26.5,26.3-26.5
	C246.3,12.8,256.5,22.8,256.5,36.5z M220.1,34.2h23c-0.2-6-4.5-10.2-10.9-10.2C226.1,24,221.6,27.9,220.1,34.2z"/>
<path class="st0" d="M298.4,19.5c0,3.7-2.6,6.2-6.5,6.7c-7.4,0.5-11.9,5.3-11.9,13.1v19.4c0.2,3.7-2.8,6.9-6.5,7.1
	c-0.1,0-0.2,0-0.4,0c-3.8,0.1-6.9-2.9-7-6.7c0-0.1,0-0.2,0-0.3v-39c-0.1-3.7,2.8-6.8,6.5-6.9c0.1,0,0.2,0,0.3,0
	c3.5,0,6.4,2.7,6.6,6.2c3.1-3.6,7.6-5.7,12.4-5.7c3.3-0.2,6.1,2.2,6.3,5.5C298.4,19.1,298.4,19.3,298.4,19.5z"/>
<path class="st0" d="M371,59c0.1,2.4-1.3,4.6-3.5,5.5c-2.3,0.9-4.7,1.4-7.2,1.3c-13.2,0-20.3-6.7-20.3-19V25.6h-2.9
	c-3.2,0.1-5.9-2.4-6.1-5.6c-0.1-3.2,2.4-5.9,5.6-6.1c0.2,0,0.3,0,0.5,0h2.9v-7c-0.1-3.8,2.8-7,6.6-7.2c3.8-0.1,7,2.8,7.2,6.6
	c0,0.2,0,0.4,0,0.5v7h9.3c3.1-0.1,5.7,2.3,5.8,5.5c0,0.1,0,0.3,0,0.4c0.1,3.1-2.3,5.7-5.5,5.8c-0.1,0-0.3,0-0.4,0h-9.3v20
	c0,5.6,2.7,7.9,9.1,7.9c0.8,0,1.4-0.1,1.9-0.1C368.6,53.3,371,55.6,371,59z"/>
<path class="st0" d="M558.2,39.2c0,14.7-12.1,26.5-27.3,26.5s-27-11.7-27-26.5s11.9-26.4,27.1-26.4S558.2,24.5,558.2,39.2z
	 M517.9,39.3c0,8,5.5,13.7,13.1,13.7s13.1-5.8,13.1-13.7s-5.6-13.9-13.1-13.9S517.9,31.2,517.9,39.3L517.9,39.3z"/>
<path class="st0" d="M421.3,38.7C421.3,38.7,421.3,38.7,421.3,38.7c0-4.2,2.1-7.8,5.2-10c-4.1-9.4-13.7-15.9-25-15.9
	c-15.2,0-27.1,11.6-27.1,26.4c0,14.8,11.8,26.5,27,26.5c11.7,0,21.5-6.9,25.4-16.7C423.5,46.8,421.3,43,421.3,38.7z M401.4,53
	c-7.6,0-13.1-5.7-13.1-13.7c0-8.1,5.6-13.9,13.1-13.9s13.1,6,13.1,13.9S409,53,401.4,53z"/>
<path class="st1" d="M429.9,32.3c3.5-2.1,8.1-0.9,10.1,2.7s0.9,8.1-2.7,10.1c-3.5,2.1-8.1,0.9-10.1-2.7c0,0,0,0,0,0
	C425.2,38.9,426.4,34.4,429.9,32.3z"/>
<path class="st0" d="M488,12.8c-3.6,0-6.6,2.8-6.8,6.4c-3.5-4.1-8.9-6.4-15.8-6.4c-11.5,0-20.2,6.7-23.2,17.1
	c2.3,2.3,3.8,5.4,3.8,8.9c0,3.3-1.3,6.2-3.3,8.4C446,56.8,454.5,63,465.5,63c6.6,0,11.9-2.1,15.5-6v2.7c0,7.6-5,12-13.5,12
	c-4.9,0-9.7-1.6-13.6-4.5c-1.1-0.8-2.3-1.3-3.7-1.3c0,0-0.1,0-0.1,0c-3.4,0-6.2,2.8-6.2,6.2c0.1,2,1.1,3.9,2.9,5
	c6.3,4.7,13.9,7.2,21.8,7.1c16.5,0,26.2-9.3,26.2-25.3V19.7c0-0.1,0-0.3,0-0.4C494.7,15.7,491.7,12.7,488,12.8z M468.3,51.4
	c-7.6,0-13.1-5.8-13.1-13.6c0-7.8,5.3-13.2,13.1-13.2s12.8,5.2,12.8,13.1C481.1,45.9,475.9,51.4,468.3,51.4z"/>
</svg>
