<?xml version="1.0" encoding="utf-8"?>
<!-- Generator: Adobe Illustrator 16.0.0, SVG Export Plug-In . SVG Version: 6.00 Build 0)  -->
<!DOCTYPE svg PUBLIC "-//W3C//DTD SVG 1.1//EN" "http://www.w3.org/Graphics/SVG/1.1/DTD/svg11.dtd">
<svg version="1.1" id="Layer_1" xmlns="http://www.w3.org/2000/svg" xmlns:xlink="http://www.w3.org/1999/xlink" x="0px" y="0px"
	 width="1000px" height="1000px" viewBox="0 0 1000 1000" enable-background="new 0 0 1000 1000" xml:space="preserve">
<g>
	<path fill="#231F20" d="M616.451,341.254c0,43.847,35.561,79.335,79.359,79.335s79.311-35.488,79.311-79.335
		c0-43.823-35.512-79.358-79.311-79.358S616.451,297.431,616.451,341.254z"/>
	<path fill="#231F20" d="M562.264,423.073c-18.915,16.955-43.751,27.391-71.12,27.391c-58.94,0-106.775-47.668-106.775-106.631
		c0-59.012,47.835-106.633,106.775-106.633c27.297,0,52.277,10.413,71.12,27.369c16.836-34.652,44.157-63.238,78.092-81.341
		c-39.118-36.443-91.584-58.748-149.212-58.748c-121.224,0-219.329,98.297-219.329,219.354
		c0,121.199,98.105,219.329,219.329,219.329c57.698,0,110.047-22.376,149.118-58.795
		C606.396,486.264,579.075,457.702,562.264,423.073z"/>
	<g>
		<path fill="#231F20" d="M427.642,788.153c0,50.94-35.321,86.427-85.424,86.235c-50.104-0.167-83.968-36.251-83.682-87.86
			c0-49.889,35.895-85.592,85.258-85.52C394.184,701.151,427.81,736.091,427.642,788.153z M287.768,787.458
			c0,42.988,33.673,70.237,72.6,58.823c25.458-7.476,41.125-33.722,38.689-64.815c-3.129-39.857-38.45-64.41-74.822-52.158
			C301.379,737.355,287.72,759.064,287.768,787.458z"/>
		<path fill="#231F20" d="M755.61,764.366c0,14.065,0.334,28.038,0,42.055c-1.528,52.9-35.966,72.458-79.741,67.038
			c-38.521-4.729-55.573-26.176-56.768-68.875c-0.812-28.396-0.383-56.815,0-85.163c0-13.136,3.631-16.526,14.998-16.264
			c10.27,0,13.972,4.3,14.042,16.407c0,26.627,0,53.208,0,79.837c-0.143,4.896,0,9.791,0.383,14.687
			c2.341,21.183,15.522,33.744,35.536,34.197c24.86,0.598,37.686-9.264,41.315-32.049c1.074-6.59,1.624-13.206,1.695-19.845
			c0-25.912,0-51.849,0-77.782c0-12.324,3.177-15.645,14.329-15.596c11.152,0.072,14.019,3.965,14.161,16.072
			C755.706,734.323,755.61,749.345,755.61,764.366z"/>
		<path fill="#231F20" d="M91.149,787.986c-1.265-58.751,50.248-102.119,115.063-82.25c10.961,4.441,20.849,11.129,29.016,19.679
			c5.923,4.729,6.879,13.396,2.126,19.321c-0.621,0.788-1.361,1.502-2.126,2.125c-5.827,5.206-10.388,7.736-16.884-0.741
			c-14.401-18.819-34.796-22.928-56.672-17.385c-21.875,5.492-34.819,21.779-38.498,43.751c-1.766,11.749-1.241,23.715,1.481,35.271
			c4.156,21.47,21.781,37.734,43.513,40.146c22.209,3.176,41.602-2.938,54.283-23.618c2.65-2.558,6.424-3.583,9.959-2.723
			c6.95,1.6,11.271,8.501,9.671,15.451c-0.072,0.31-0.143,0.645-0.262,0.979c-2.484,6.948-6.64,13.159-12.132,18.149
			c-44.659,39.644-121.773,15.07-135.29-42.985C92.892,804.821,91.794,796.415,91.149,787.986z"/>
		<path fill="#231F20" d="M447.439,787.986c-1.337-61.353,52.183-101.594,114.299-82.25c11.271,4.514,21.374,11.536,29.564,20.467
			c5.685,5.302,6.02,14.161,0.742,19.847c-1.028,1.121-2.221,2.076-3.561,2.793c-5.206,3.511-9.073,4.49-13.898-1.935
			c-14.543-19.439-34.771-23.214-57.34-18.438c-21.469,5.423-37.112,23.883-38.903,45.95c-1.265,11.772-0.478,23.666,2.294,35.202
			c4.871,20.514,22.064,35.749,42.986,38.137c22.162,3.106,41.698-2.625,54.235-23.595c1.935-2.293,4.8-3.558,7.832-3.416
			c4.515,3.633,10.963,8.265,11.584,12.994c-0.192,6.494-2.77,12.68-7.261,17.409c-18.771,20.897-43.655,25.911-70.021,22.162
			C473.614,866.866,447.439,835.008,447.439,787.986z"/>
		<path fill="#231F20" d="M814.646,811.581c0,15.498,0,29.685,0,43.989c0,13.015-3.297,16.766-14.425,16.693
			c-11.152-0.072-14.042-4.204-14.042-16.193c0-44.418,0-88.909,0-133.378c0-11.605,3.964-18.556,13.971-18.532
			c23.237-0.67,46.546,0.574,69.592,3.679c26.579,4.632,39.954,25.026,39.094,51.774c0.644,24.98-17.672,46.403-42.462,49.651
			c-7.57,1.288-15.236,2.005-22.903,2.148C834.467,811.844,825.082,811.581,814.646,811.581z M815.17,787.389
			c13.757,0,26.413,0.692,38.856,0c16.073-1.074,25.624-12.036,26.509-28.396c1.624-14.256-8.525-27.201-22.735-28.991
			c-13.876-2.221-28.133-1.935-42.63-2.795v60.61V787.389z"/>
	</g>
</g>
</svg>
