<?xml version="1.0" encoding="utf-8"?>
<!-- Generator: Adobe Illustrator 16.0.0, SVG Export Plug-In . SVG Version: 6.00 Build 0)  -->
<!DOCTYPE svg PUBLIC "-//W3C//DTD SVG 1.1//EN" "http://www.w3.org/Graphics/SVG/1.1/DTD/svg11.dtd">
<svg version="1.1" id="Layer_1" xmlns="http://www.w3.org/2000/svg" xmlns:xlink="http://www.w3.org/1999/xlink" x="0px" y="0px"
	 width="1000px" height="1000px" viewBox="0 0 1000 1000" enable-background="new 0 0 1000 1000" xml:space="preserve">
<g>
	<linearGradient id="SVGID_1_" gradientUnits="userSpaceOnUse" x1="720.3994" y1="432.6343" x2="910.4943" y2="621.4698">
		<stop  offset="0" style="stop-color:#4F8E40"/>
		<stop  offset="1" style="stop-color:#6DBD45"/>
	</linearGradient>
	<path fill="url(#SVGID_1_)" d="M653.21,495.769c0,72.247,58.594,130.721,130.762,130.721s130.682-58.475,130.682-130.721
		c0-72.208-58.514-130.76-130.682-130.76S653.21,423.561,653.21,495.769z"/>
	<linearGradient id="SVGID_2_" gradientUnits="userSpaceOnUse" x1="146.5298" y1="144.0889" x2="771.1104" y2="889.5547">
		<stop  offset="0" style="stop-color:#680911"/>
		<stop  offset="1" style="stop-color:#FF4555"/>
	</linearGradient>
	<path fill="url(#SVGID_2_)" d="M563.925,630.584c-31.167,27.938-72.089,45.135-117.186,45.135
		c-97.117,0-175.936-78.543-175.936-175.698c0-97.236,78.819-175.701,175.936-175.701c44.978,0,86.138,17.156,117.186,45.095
		c27.741-57.096,72.759-104.198,128.673-134.027c-64.455-60.048-150.904-96.8-245.858-96.8
		c-199.743,0-361.393,161.965-361.393,361.433c0,199.7,161.65,361.391,361.393,361.391c95.07,0,181.325-36.869,245.704-96.879
		C636.643,734.705,591.625,687.643,563.925,630.584z"/>
</g>
</svg>
