<?xml version="1.0" standalone="no"?>
<!DOCTYPE svg PUBLIC "-//W3C//DTD SVG 20010904//EN"
 "http://www.w3.org/TR/2001/REC-SVG-20010904/DTD/svg10.dtd">
<svg version="1.0" xmlns="http://www.w3.org/2000/svg"
 width="798.000000pt" height="798.000000pt" viewBox="0 0 798.000000 798.000000"
 preserveAspectRatio="xMidYMid meet">
<metadata>
Created by potrace 1.11, written by Peter Selinger 2001-2013
</metadata>
<g transform="translate(0.000000,798.000000) scale(0.100000,-0.100000)"
fill="#000000" stroke="none">
<path d="M3260 6696 c-871 -113 -1616 -612 -2047 -1371 -341 -599 -437 -1332
-264 -2012 77 -304 199 -576 377 -840 111 -165 185 -255 334 -404 419 -422
918 -674 1535 -776 89 -14 165 -18 400 -17 299 0 366 7 595 58 361 80 713 243
1020 471 92 69 211 170 218 185 1 4 -47 38 -109 76 -312 194 -592 483 -772
801 -37 64 -68 121 -70 126 -2 6 -45 -22 -97 -61 -318 -242 -735 -324 -1130
-222 -330 85 -625 308 -802 605 -144 241 -208 528 -179 798 68 625 523 1098
1142 1187 108 16 345 8 449 -15 205 -45 410 -145 578 -281 18 -15 34 -25 36
-23 1 2 22 40 46 84 196 359 498 673 841 872 l82 47 -39 34 c-187 163 -412
315 -616 415 -269 132 -475 198 -798 253 -131 22 -585 28 -730 10z"/>
<path d="M6080 5003 c-333 -29 -592 -178 -769 -443 -31 -47 -71 -122 -89 -168
-234 -594 124 -1229 753 -1337 154 -26 295 -15 455 37 93 30 112 41 171 103
46 48 58 55 93 57 39 1 39 1 7 5 l-34 4 49 50 49 50 6 -38 6 -38 2 46 c1 40 6
51 43 85 27 25 55 41 78 44 32 5 35 8 38 40 3 24 16 48 46 80 47 50 82 139
110 284 46 227 -16 509 -155 713 -73 107 -216 238 -329 301 -150 84 -381 139
-530 125z m850 -1508 c0 -20 -5 -25 -26 -25 l-26 0 23 25 c30 30 29 30 29 0z"/>
</g>
</svg>
