<?xml version="1.0" encoding="utf-8"?>
<!-- Generator: Adobe Illustrator 23.0.6, SVG Export Plug-In . SVG Version: 6.00 Build 0)  -->
<svg version="1.1" id="Layer_1" xmlns="http://www.w3.org/2000/svg" xmlns:xlink="http://www.w3.org/1999/xlink" x="0px" y="0px"
	 viewBox="0 0 2299 1080" style="enable-background:new 0 0 2299 1080;" xml:space="preserve">
<style type="text/css">
	.st0{fill:#C61C0A;}
	.st1{fill:#FFFFFF;}
</style>
<g>
	<path class="st0" d="M346.7,577.7c-5,25.9-20.7,49.6-45.3,63.9c-45.3,26.5-103.4,11.2-129.9-34c-26.5-45.3-11.2-103.4,34-129.9
		c25.4-14.8,54.8-16.6,80.4-7.3c-4.4-34.1,2.2-68.7,18.4-98.7c-48.7-13.2-102.4-7.6-149.4,19.9C61.9,445.8,30.7,565.2,85,658.2
		c54.4,92.9,173.7,124.2,266.7,69.8c45.3-26.5,75.9-68.5,89.2-115.3C406.8,611.2,373.7,599.1,346.7,577.7z"/>
	<path class="st0" d="M400.5,396.1c33.5-19.4,76.9-7.8,96.1,25.6c19.3,33.6,7.9,76.6-25.4,95.9c-33.4,19.4-77,7.8-96.1-25.6
		C355.9,458.6,367.3,415.3,400.5,396.1z"/>
</g>
<path d="M1858.6,560.7c0,43.3-35.5,77.8-80.2,77.8c-44.5,0-79.3-34.3-79.3-77.8c0-43.6,34.9-77.5,79.6-77.5
	C1823.1,483.1,1858.6,517.4,1858.6,560.7z M1740.2,561c0,23.4,16.2,40.3,38.5,40.3c21.9,0,38.5-17.1,38.5-40.3
	c0-23.4-16.5-40.9-38.5-40.9C1756.4,520.1,1740.2,537.2,1740.2,561z"/>
<path d="M591,560.7c0-43.6,34.9-77.5,79.6-77.5c25.2,0,48.7,12,60.1,29.4c2.7,4.2,3.6,7.5,3.6,10.8c0,9.9-8.1,18-18,18
	c-5.7,0-10.2-1.8-13.8-6.3c-7.5-9-18-15-31.2-15c-22.8,0-39.1,16.8-39.1,40.6c0,24,16.2,40.9,39.1,40.9c12.9,0,23.1-6,31.2-15
	c4.2-4.8,8.4-6.3,13.8-6.3c9.9,0,18,8.1,18,18c0,3.6-0.9,6.6-3.3,10.2c-12.3,18.9-34,30.4-60.4,30.4
	C625.9,638.8,591,604.2,591,560.7z"/>
<path d="M890,546.8v71.5c0,11.7-8.4,20.1-19.5,20.1c-9.9,0-17.7-6.6-19.5-15.6c-10.8,10.2-25.9,15.9-43.6,15.9
	c-30.6,0-51.4-18-51.4-44.5c0-26.7,21.3-43.3,56.2-43.3h37.3v-6.6c0-16.5-9.9-26.1-27.9-26.1c-10.5,0-19.8,3.6-28.6,11.1
	c-4.8,3.6-8.1,4.8-12,4.8c-9.9,0-17.4-7.5-17.4-16.5c0-5.7,3-11.1,8.4-16.2c12.6-11.7,32.2-18.3,53.8-18.3
	C866.6,483.1,890,506.3,890,546.8z M849.4,579.6v-1.8h-31.8c-13.5,0-20.7,5.1-20.7,15S805,609,818.2,609
	C835.9,609,849.4,596.4,849.4,579.6z"/>
<path d="M1023.4,503c0,10.8-7.5,18.3-18.9,19.5c-21.6,1.5-34.9,15.6-34.9,38.5v57.1c0,12-8.7,20.7-20.1,20.7
	c-11.7,0-20.4-9-20.4-20.7V503.6c0-11.7,8.7-20.4,20.1-20.4c10.5,0,18.6,7.8,19.5,18.3c9.3-10.5,22.2-16.8,36.4-16.8
	C1015.9,484.6,1023.4,491.8,1023.4,503z"/>
<path d="M1182.1,552.8v0.9c0,12.6-9,20.7-22.2,20.7h-84.7c4.8,18.6,19.8,29.4,41.8,29.4c10.8,0,21.9-3,31-8.7c3-1.8,5.7-2.7,8.7-2.7
	c9.3,0,16.5,6.9,16.5,16.2c0,6.6-3,11.4-10.2,16.2c-13.5,9-29.7,13.8-47.2,13.8c-46.9,0-81.4-33.4-81.4-77.8
	c0-44.2,33.3-77.8,77.2-77.8C1152.1,483.1,1182.1,512.6,1182.1,552.8z M1075.1,545.9h67.6c-0.6-17.7-13.2-30.1-32.1-30.1
	C1092.9,515.9,1079.6,527.6,1075.1,545.9z"/>
<path d="M1353.1,552.8v0.9c0,12.6-9,20.7-22.2,20.7h-84.7c4.8,18.6,19.8,29.4,41.8,29.4c10.8,0,21.9-3,31-8.7c3-1.8,5.7-2.7,8.7-2.7
	c9.3,0,16.5,6.9,16.5,16.2c0,6.6-3,11.4-10.2,16.2c-13.5,9-29.7,13.8-47.2,13.8c-46.9,0-81.4-33.4-81.4-77.8
	c0-44.2,33.3-77.8,77.2-77.8C1323.1,483.1,1353.1,512.6,1353.1,552.8z M1246.1,545.9h67.6c-0.6-17.7-13.2-30.1-32.1-30.1
	C1263.9,515.9,1250.6,527.6,1246.1,545.9z"/>
<path d="M1479,503c0,10.8-7.5,18.3-18.9,19.5c-21.6,1.5-34.9,15.6-34.9,38.5v57.1c0,12-8.7,20.7-20.1,20.7c-11.7,0-20.4-9-20.4-20.7
	V503.6c0-11.7,8.7-20.4,20.1-20.4c10.5,0,18.6,7.8,19.5,18.3c9.3-10.5,22.2-16.8,36.4-16.8C1471.5,484.6,1479,491.8,1479,503z"/>
<path d="M1619,445.6c11.4,0,20.1,8.7,20.1,20.4v20.4h27.3c9.9,0,17.1,7.2,17.1,17.1c0,9.9-7.2,17.1-17.1,17.1h-27.3v58.6
	c0,16.5,7.8,23.1,26.7,23.1c2.4,0,4.2-0.3,5.7-0.3c10.8,0,17.7,6.6,17.7,16.5c0,7.5-3.9,13.2-10.2,16.2c-5.7,2.4-12.3,3.9-21,3.9
	c-38.8,0-59.5-19.5-59.5-55.9v-62.2h-8.4c-9.9,0-17.4-7.2-17.4-17.1c0-9.9,7.5-17.1,17.4-17.1h8.4V466
	C1598.5,454.3,1606.9,445.6,1619,445.6"/>
<path d="M2052.6,503.6v115.1c0,46.9-28.6,74.2-76.9,74.2c-24.3,0-46.9-7.2-64-20.7c-5.4-3.9-8.4-9.3-8.4-14.7
	c0-10.2,8.1-18.3,18.3-18.3c3.6,0,7.2,1.5,10.8,3.9c12.9,9,25.5,13.2,40,13.2c24.9,0,39.7-12.9,39.7-35.2V613
	c-10.5,11.4-26.2,17.7-45.4,17.7c-41.8,0-71.2-30.7-71.2-73.9c0-43.3,29.4-73.6,71.2-73.6c20.1,0,36.1,6.9,46.3,18.9
	c0.6-10.8,9.3-18.9,19.8-18.9C2044.2,483.1,2052.6,491.8,2052.6,503.6z M2012.6,556.2c0-23.1-14.7-38.5-37.6-38.5
	c-22.5,0-38.5,15.9-38.5,38.8c0,23.1,16.2,40,38.5,40C1997.6,596.4,2012.6,580.2,2012.6,556.2z"/>
<path d="M2239,560.7c0,43.3-35.5,77.8-80.2,77.8c-44.5,0-79.3-34.3-79.3-77.8c0-43.6,34.9-77.5,79.6-77.5
	C2203.6,483.1,2239,517.4,2239,560.7z M2120.6,561c0,23.4,16.2,40.3,38.5,40.3c21.9,0,38.5-17.1,38.5-40.3
	c0-23.4-16.5-40.9-38.5-40.9C2136.8,520.1,2120.6,537.2,2120.6,561z"/>
<path class="st1" d="M1873.4,522.9c20,0.1,36.4,16.6,36.2,36.5c-0.2,20-16.5,36.3-36.4,36.2c-20-0.1-36.4-16.6-36.2-36.5
	C1837.1,539.2,1853.5,522.8,1873.4,522.9z"/>
<path class="st0" d="M1862.4,540.5c10.3-6,23.7-2.4,29.7,7.9c6,10.4,2.4,23.6-7.8,29.6c-10.3,6-23.8,2.4-29.7-7.9
	C1848.6,559.8,1852.1,546.5,1862.4,540.5z"/>
</svg>
