<svg id="Layer_1" data-name="Layer 1" xmlns="http://www.w3.org/2000/svg" viewBox="0 0 403.25 366.56"><defs><style>.cls-1{fill:#c61c0a;}</style></defs><title>POS_Logomark</title><path class="cls-1" d="M268.44,211.15a154.09,154.09,0,0,0,42.82,19.94A151.12,151.12,0,0,0,357.83,237C336.7,315,251,382.83,148.25,363.1c-103.66-19.92-169.48-125.17-142-227C34,33.35,136.59-16.49,223.05,4.87a152.75,152.75,0,0,0-21.83,90.82c-29.71-5.19-55.94,1.74-78.17,21.73-16.57,14.9-25.95,33.81-28.49,56-5,43.64,22.07,83.61,65.27,96.14C199.05,280.92,250.71,262.33,268.44,211.15Z"/><path class="cls-1" d="M304.16,36.43c31.52-18.18,72.32-7.2,90.33,24.31s7.28,72.06-24.05,90.14C339,169.05,298,158.07,280.06,126.63S272.9,54.47,304.16,36.43Z"/></svg>