<?xml version="1.0" encoding="utf-8"?>
<!-- Generator: Adobe Illustrator 23.0.3, SVG Export Plug-In . SVG Version: 6.00 Build 0)  -->
<svg version="1.1" id="Layer_1" xmlns="http://www.w3.org/2000/svg" xmlns:xlink="http://www.w3.org/1999/xlink" x="0px" y="0px"
	 viewBox="0 0 64 80" style="enable-background:new 0 0 64 80;" xml:space="preserve">
<style type="text/css">
	.st0{fill-rule:evenodd;clip-rule:evenodd;fill:none;stroke:#4a4a4a;opacity:0.6;stroke-width:1;stroke-miterlimit:10;}
	.st1{stroke:#707070;opacity:0.2;stroke-width:1;}
</style>
<title>building_1</title>
<g>
	<path class="st0" d="M60,60h-6V27c0-0.6-0.4-1-1-1H39V3c0-0.6-0.4-1-1-1H12c-0.6,0-1,0.4-1,1v57H2c-0.6,0-1,0.4-1,1s0.4,1,1,1h58
		c0.6,0,1-0.4,1-1S60.6,60,60,60z M13,4h24v22H27c-0.6,0-1,0.4-1,1v33h-2v-9c0-1.7-1.3-3-3-3h-2c-1.7,0-3,1.3-3,3v9h-3V4z M18,60v-9
		c0-0.6,0.4-1,1-1h2c0.6,0,1,0.4,1,1v9H18z M28,60V28h24v32H28z"/>
	<path class="st1" d="M27,24h6c0.6,0,1-0.4,1-1v-6c0-0.6-0.4-1-1-1h-6c-0.6,0-1,0.4-1,1v6C26,23.6,26.4,24,27,24z M28,18h4v4h-4V18z"/>
	<path class="st1" d="M27,14h6c0.6,0,1-0.4,1-1V7c0-0.6-0.4-1-1-1h-6c-0.6,0-1,0.4-1,1v6C26,13.6,26.4,14,27,14z M28,8h4v4h-4V8z"/>
	<path class="st1" d="M17,24h6c0.6,0,1-0.4,1-1v-6c0-0.6-0.4-1-1-1h-6c-0.6,0-1,0.4-1,1v6C16,23.6,16.4,24,17,24z M18,18h4v4h-4V18z"/>
	<path class="st1" d="M17,14h6c0.6,0,1-0.4,1-1V7c0-0.6-0.4-1-1-1h-6c-0.6,0-1,0.4-1,1v6C16,13.6,16.4,14,17,14z M18,8h4v4h-4V8z"/>
	<path class="st1" d="M17,34h6c0.6,0,1-0.4,1-1v-6c0-0.6-0.4-1-1-1h-6c-0.6,0-1,0.4-1,1v6C16,33.6,16.4,34,17,34z M18,28h4v4h-4V28z"/>
	<path class="st1" d="M17,44h6c0.6,0,1-0.4,1-1v-6c0-0.6-0.4-1-1-1h-6c-0.6,0-1,0.4-1,1v6C16,43.6,16.4,44,17,44z M18,38h4v4h-4V38z"/>
	<path class="st1" d="M48,40h-6c-0.6,0-1,0.4-1,1v6c0,0.6,0.4,1,1,1h6c0.6,0,1-0.4,1-1v-6C49,40.4,48.6,40,48,40z M47,46h-4v-4h4V46z"/>
	<path class="st1" d="M48,30h-6c-0.6,0-1,0.4-1,1v6c0,0.6,0.4,1,1,1h6c0.6,0,1-0.4,1-1v-6C49,30.4,48.6,30,48,30z M47,36h-4v-4h4V36z"/>
	<path class="st1" d="M48,50h-6c-0.6,0-1,0.4-1,1v6c0,0.6,0.4,1,1,1h6c0.6,0,1-0.4,1-1v-6C49,50.4,48.6,50,48,50z M47,56h-4v-4h4V56z"/>
	<path class="st1" d="M38,40h-6c-0.6,0-1,0.4-1,1v6c0,0.6,0.4,1,1,1h6c0.6,0,1-0.4,1-1v-6C39,40.4,38.6,40,38,40z M37,46h-4v-4h4V46z"/>
	<path class="st1" d="M38,30h-6c-0.6,0-1,0.4-1,1v6c0,0.6,0.4,1,1,1h6c0.6,0,1-0.4,1-1v-6C39,30.4,38.6,30,38,30z M37,36h-4v-4h4V36z"/>
	<path class="st1" d="M38,50h-6c-0.6,0-1,0.4-1,1v6c0,0.6,0.4,1,1,1h6c0.6,0,1-0.4,1-1v-6C39,50.4,38.6,50,38,50z M37,56h-4v-4h4V56z"/>
</g>
</svg>
