<?xml version="1.0" encoding="utf-8"?>
<!-- Generator: Adobe Illustrator 23.0.3, SVG Export Plug-In . SVG Version: 6.00 Build 0)  -->
<svg version="1.1" id="Layer_1" xmlns="http://www.w3.org/2000/svg" xmlns:xlink="http://www.w3.org/1999/xlink" x="0px" y="0px"
	 viewBox="124 0 175 665" style="enable-background:new 0 0 375 665;" xml:space="preserve">
<style type="text/css">
	.st0{fill-rule:evenodd;clip-rule:evenodd;fill:none;stroke:#707070;stroke-width:5;stroke-miterlimit:10;}
</style>
<path id="Path_30" class="st0" d="M210.6,205.7c41,0.1,74.2,33.3,74.3,74.3c0,35.5-52.5,122.5-74.3,156.9
	c-21.8-34.5-74.3-121.4-74.3-156.9C136.4,239,169.6,205.8,210.6,205.7z M210.6,246.5c18.5,0,33.4,15,33.3,33.5
	c0,18.5-15,33.4-33.5,33.3c-18.4,0-33.3-14.9-33.3-33.3c-0.1-18.4,14.7-33.4,33.1-33.5C210.3,246.5,210.5,246.5,210.6,246.5z"/>
</svg>
