<?xml version="1.0" encoding="utf-8"?>
<!-- Generator: Adobe Illustrator 23.0.3, SVG Export Plug-In . SVG Version: 6.00 Build 0)  -->
<svg version="1.1" id="Layer_1" xmlns="http://www.w3.org/2000/svg" xmlns:xlink="http://www.w3.org/1999/xlink" x="0px" y="0px"
	 viewBox="0 0 34 42.5" style="enable-background:new 0 0 34 42.5;" xml:space="preserve">
<style type="text/css">
	.st0{fill:none;stroke:#707070;opacity:0.9;stroke-miterlimit:10;}
</style>
<g>
	<path class="st0" d="M24.2,19.2c-0.1-0.2-0.3-0.4-0.4-0.5c-0.2-0.3-0.4-0.5-0.8-0.9c-0.3-0.3-0.6-0.5-0.9-0.8
		c-1.5-1.1-3.2-1.7-5.1-1.7s-3.7,0.6-5.1,1.7c-0.6,0.5-1.1,1-1.6,1.6c-0.1,0.2-0.3,0.4-0.4,0.6c-0.9,1.4-1.4,3-1.4,4.6v0.5v3v0.5
		c0,0.8,0.7,1.5,1.5,1.5h14c0.8,0,1.5-0.7,1.5-1.5v-0.5v-3.5C25.5,22.1,25,20.5,24.2,19.2z"/>
	<path class="st0" d="M21.5,9.3c0,2.5-2,4.5-4.5,4.5s-4.5-2-4.5-4.5s2-4.5,4.5-4.5S21.5,6.8,21.5,9.3z"/>
	<path class="st0" d="M31,9.3c0,2.5-2,4.5-4.5,4.5s-4.5-2-4.5-4.5s2-4.5,4.5-4.5S31,6.8,31,9.3z"/>
	<path class="st0" d="M33,21.8v4c0,0.8-0.7,1.5-1.5,1.5H27v-3.5c0-1.9-0.6-3.8-1.6-5.4c-0.1-0.2-0.3-0.5-0.4-0.6
		c-0.2-0.3-0.5-0.7-0.9-1.1c-0.2-0.2-0.5-0.4-0.7-0.6c0.9-0.5,2-0.8,3.1-0.8c1.7,0,3.4,0.7,4.6,1.9C32.3,18.4,33,20,33,21.8z"/>
	<path class="st0" d="M10.6,16c-0.6,0.5-1.1,1-1.5,1.6c-0.2,0.2-0.3,0.5-0.5,0.7C7.6,20,7,21.8,7,23.8v3.5H2.5
		c-0.8,0-1.5-0.7-1.5-1.5v-4c0-3.6,2.9-6.5,6.5-6.5C8.6,15.3,9.7,15.5,10.6,16z"/>
	<path class="st0" d="M12,9.3c0,2.5-2,4.5-4.5,4.5S3,11.7,3,9.3c0-2.5,2-4.5,4.5-4.5S12,6.8,12,9.3z"/>
</g>
</svg>
