<?xml version="1.0" encoding="utf-8"?>
<!-- Generator: Adobe Illustrator 23.0.3, SVG Export Plug-In . SVG Version: 6.00 Build 0)  -->
<svg version="1.1" id="Layer_1" xmlns="http://www.w3.org/2000/svg" xmlns:xlink="http://www.w3.org/1999/xlink" x="0px" y="0px"
	 viewBox="100 75 750 750" style="enable-background:new 0 0 847 1058.8;" xml:space="preserve">
<style type="text/css">
	.st0{fill:#939393; opacity: 0.5;}
</style>
<g>
	<path class="st0" d="M160.5,379.3h159.4c4.9,0,8.9,4,8.9,8.9v340c0,4.9-4,8.9-8.9,8.9H160.5c-4.9,0-8.9-4-8.9-8.9v-340
		C151.7,383.3,155.6,379.3,160.5,379.3z"/>
	<path class="st0" d="M273,227.9h207.2c4.9,0,8.9,4,8.9,8.9v186.8c0,4.9-4,8.9-8.9,8.9H371.2c-4.9,0-8.9-4-8.9-8.9V351c0-4.9-4-8.9-8.9-8.9H273
		c-4.9,0-8.9-4-8.9-8.9v-96.5C264.1,231.9,268.1,227.9,273,227.9z"/>
	<path class="st0" d="M371.2,467h162.9c4.9,0,8.9,4,8.9,8.9v252.3c0,4.9-4,8.9-8.9,8.9H371.2c-4.9,0-8.9-4-8.9-8.9V475.8
		C362.4,470.9,366.3,467,371.2,467z"/>
	<path class="st0" d="M574.8,737V441.3c0-4.9-4-8.9-8.9-8.9h-35.4c-4.9,0-8.9-4-8.9-8.9V197.8c0-4.9,4-8.9,8.9-8.9h195.7c4.9,0,8.9,4,8.9,8.9
		v530.3c0,4.9-4,8.9-8.9,8.9H574.8"/>
	<rect x="187.1" y="445.7" class="st0" width="33.3" height="33.3"/>
	<rect x="259.7" y="445.7" class="st0" width="33.3" height="33.3"/>
	<rect x="187.1" y="521" class="st0" width="33.3" height="33.3"/>
	<rect x="259.7" y="521" class="st0" width="33.3" height="33.3"/>
	<rect x="187.1" y="595.3" class="st0" width="33.3" height="33.3"/>
	<rect x="259.7" y="595.3" class="st0" width="33.3" height="33.3"/>
	<rect x="559.8" y="238.6" class="st0" width="42.9" height="42.9"/>
	<rect x="653.6" y="238.6" class="st0" width="42.9" height="42.9"/>
	<rect x="559.8" y="335.1" class="st0" width="42.9" height="42.9"/>
	<rect x="653.6" y="335.1" class="st0" width="42.9" height="42.9"/>
	<rect x="653.6" y="431.6" class="st0" width="42.9" height="42.9"/>
	<rect x="400.4" y="515.7" class="st0" width="33.3" height="33.3"/>
	<rect x="473" y="515.7" class="st0" width="33.3" height="33.3"/>
	<rect x="400.4" y="590.9" class="st0" width="33.3" height="33.3"/>
	<rect x="473" y="590.9" class="st0" width="33.3" height="33.3"/>
</g>
</svg>
