<?xml version="1.0" encoding="utf-8"?>
<!-- Generator: Adobe Illustrator 23.0.3, SVG Export Plug-In . SVG Version: 6.00 Build 0)  -->
<svg version="1.1" id="Layer_1" xmlns="http://www.w3.org/2000/svg" xmlns:xlink="http://www.w3.org/1999/xlink" x="0px" y="0px"
	 viewBox="0 0 500 625" style="enable-background:new 0 0 500 625;" xml:space="preserve">
<style type="text/css">
	.st0{font-family:'HelveticaNeueLTStd-Bd';}
	.st1{font-size:5px; }
	.st2{fill: #707070;}
</style>
<g>
	<g>
		<g>
			<path class="st2" d="M327.5,206c-0.3,52.6-33.5,101.1-83.2,119c-50,18.1-106.8,2.6-140.9-38.1c-34.2-40.8-38.5-100.8-11-146.3
				c27.3-45.1,81.4-69.2,133.2-58.8C277,92.1,317.5,134.2,326,186C327,192.6,327.5,199.3,327.5,206c0,6.4,10,6.4,10,0
				c-0.3-57-36.4-108.8-89.9-128.4C194,57.9,131.6,75,95.5,119.1c-36.3,44.3-41.4,108.3-11.7,157.4s88.2,74.7,144.5,63.4
				c55-11,99.1-57.1,107.6-112.6c1.1-7.1,1.7-14.2,1.7-21.3C337.5,199.6,327.5,199.6,327.5,206z"/>
		</g>
	</g>
	<g>
		<g>
			<path class="st2" d="M295.5,297.6c14.8,14.8,29.7,29.7,44.5,44.5c23.5,23.5,47.1,47.1,70.6,70.6c5.5,5.5,10.9,10.9,16.4,16.4
				c4.6,4.6,11.6-2.5,7.1-7.1c-14.8-14.8-29.7-29.7-44.5-44.5c-23.5-23.5-47.1-47.1-70.6-70.6c-5.5-5.5-10.9-10.9-16.4-16.4
				C298,285.9,290.9,293,295.5,297.6L295.5,297.6z"/>
		</g>
	</g>
</g>
<!-- <text transform="matrix(1 0 0 1 0 515)" class="st0 st1">Created by Neha Tyagi</text>
<text transform="matrix(1 0 0 1 0 520)" class="st0 st1">from the Noun Project</text> -->
</svg>
