<?xml version="1.0" encoding="iso-8859-1"?>
<!-- Generator: Adobe Illustrator 19.0.0, SVG Export Plug-In . SVG Version: 6.00 Build 0)  -->
<svg version="1.1" id="Capa_1" xmlns="http://www.w3.org/2000/svg" xmlns:xlink="http://www.w3.org/1999/xlink" x="0px" y="0px"
	 viewBox="0 0 480 480" style="enable-background:new 0 0 480 480;" xml:space="preserve">
<path style="fill:#FFB40E;" d="M24,184h80c8.84,0,16-7.16,16-16v-16H8v16C8,176.84,15.16,184,24,184z"/>
<rect x="8" y="40" style="fill:#FFF1D0;" width="112" height="112"/>
<path style="fill:#FFB40E;" d="M120,24c0-8.84-7.16-16-16-16H24C15.16,8,8,15.16,8,24v16h112V24z"/>
<path style="fill:#FFF1D0;" d="M456,8H328c-8.84,0-16,7.16-16,16v64h160V24C472,15.16,464.84,8,456,8z"/>
<g>
	<path style="fill:#06AED5;" d="M312,104c0,8.84,7.16,16,16,16h64h64c8.84,0,16-7.16,16-16V88H312V104z"/>
	<path style="fill:#06AED5;" d="M32,472h88c13.256,0,24-10.744,24-24s-10.744-24-24-24c0-8.84-7.16-16-16-16
		c-3.152,0-6.072,0.944-8.552,2.52C92.84,395.472,79.792,384,64,384c-17.672,0-32,14.328-32,32c0,2.824,0.48,5.512,1.168,8.12
		C32.776,424.096,32.4,424,32,424c-13.256,0-24,10.744-24,24S18.744,472,32,472z"/>
	<path style="fill:#06AED5;" d="M337.232,420.44c0.392,1.976,0.888,3.912,1.448,5.816c0.056,0.192,0.128,0.368,0.192,0.56
		c0.52,1.696,1.104,3.36,1.76,4.992c0.024,0.064,0.04,0.128,0.064,0.192h0.016c9.496,23.44,32.44,40,59.288,40
		s49.792-16.56,59.288-40h0.016c0.024-0.064,0.04-0.128,0.064-0.192c0.656-1.632,1.24-3.296,1.76-4.992
		c0.056-0.184,0.128-0.368,0.192-0.56c0.568-1.904,1.064-3.84,1.448-5.816c0.064-0.336,0.096-0.688,0.16-1.032
		c0.304-1.664,0.584-3.344,0.752-5.048c0.208-2.096,0.32-4.216,0.32-6.36s-0.112-4.264-0.32-6.36
		c-0.168-1.712-0.448-3.384-0.752-5.048c-0.064-0.344-0.088-0.696-0.16-1.032c-0.392-1.976-0.888-3.912-1.448-5.816
		c-0.056-0.192-0.128-0.368-0.192-0.56c-0.52-1.696-1.104-3.36-1.76-4.992c-0.024-0.064-0.04-0.128-0.064-0.192h-0.016
		c-9.496-23.44-32.44-40-59.288-40s-49.792,16.56-59.288,40h-0.016c-0.024,0.064-0.04,0.128-0.064,0.192
		c-0.656,1.632-1.24,3.296-1.76,4.992c-0.056,0.184-0.128,0.368-0.192,0.56c-0.568,1.904-1.064,3.84-1.448,5.816
		c-0.064,0.336-0.096,0.688-0.16,1.032c-0.304,1.664-0.584,3.344-0.752,5.048c-0.208,2.096-0.32,4.216-0.32,6.36
		s0.112,4.264,0.32,6.36c0.168,1.712,0.448,3.384,0.752,5.048C337.136,419.752,337.168,420.104,337.232,420.44z"/>
</g>
<circle style="fill:#FFB40E;" cx="240" cy="240" r="16"/>
<g>
	<path style="fill:#242A40;" d="M24,192h80c13.232,0,24-10.768,24-24V24c0-13.232-10.768-24-24-24H24C10.768,0,0,10.768,0,24v144
		C0,181.232,10.768,192,24,192z M104,176H24c-4.408,0-8-3.592-8-8v-8h96v8C112,172.408,108.408,176,104,176z M16,144V48h96v96H16z
		 M24,16h80c4.408,0,8,3.592,8,8v8H16v-8C16,19.592,19.592,16,24,16z"/>
	<path style="fill:#242A40;" d="M456,0H328c-13.232,0-24,10.768-24,24v80c0,13.232,10.768,24,24,24h56v16h-32v16h80v-16h-32v-16h56
		c13.232,0,24-10.768,24-24V24C480,10.768,469.232,0,456,0z M328,16h128c4.408,0,8,3.592,8,8v56H320V24
		C320,19.592,323.592,16,328,16z M456,112H328c-4.408,0-8-3.592-8-8v-8h144v8C464,108.408,460.408,112,456,112z"/>
	<path style="fill:#242A40;" d="M32,480h88c17.648,0,32-14.352,32-32c0-15.288-10.768-28.104-25.12-31.256
		c-3.4-10.704-14.544-18.136-26.176-16.512C94.536,385.776,80.288,376,64,376c-22.056,0-40,17.944-40,40
		c0,0.336,0,0.672,0.016,1.008C10.224,420.568,0,433.112,0,448C0,465.648,14.352,480,32,480z M31.536,431.984
		c0.24,0.032,1,0.112,1.24,0.128c2.584,0.096,5-0.968,6.608-2.952s2.168-4.616,1.52-7.08C40.288,419.744,40,417.808,40,416
		c0-13.232,10.768-24,24-24c11.656,0,21.568,8.36,23.568,19.888c0.456,2.64,2.2,4.864,4.648,5.952
		c2.448,1.088,5.272,0.872,7.528-0.568C104.968,413.944,112,418.088,112,424c0,4.416,3.584,8,8,8c8.824,0,16,7.176,16,16
		s-7.176,16-16,16H32c-8.824,0-16-7.176-16-16S23.176,432,31.536,431.984z"/>
	<path style="fill:#242A40;" d="M333.336,380.896c-0.016,0.032-0.04,0.064-0.056,0.096c-0.184,0.448-0.304,0.904-0.472,1.352
		c-0.632,1.648-1.24,3.296-1.752,5c-0.192,0.648-0.328,1.304-0.504,1.96c-0.424,1.56-0.848,3.12-1.16,4.72
		c-0.216,1.104-0.344,2.216-0.512,3.328c-0.176,1.184-0.4,2.352-0.52,3.552c-0.232,2.352-0.36,4.72-0.36,7.096
		s0.128,4.744,0.36,7.096c0.12,1.2,0.344,2.368,0.52,3.552c0.168,1.112,0.288,2.224,0.512,3.328c0.32,1.6,0.744,3.16,1.16,4.72
		c0.176,0.648,0.312,1.312,0.504,1.96c0.512,1.704,1.12,3.352,1.752,5c0.168,0.448,0.296,0.912,0.472,1.352
		c0.016,0.032,0.04,0.064,0.056,0.096C344.072,461.4,369.888,480,400,480s55.928-18.6,66.664-44.896
		c0.016-0.032,0.04-0.064,0.056-0.096c0.184-0.448,0.304-0.904,0.472-1.352c0.632-1.648,1.24-3.296,1.752-5
		c0.192-0.648,0.328-1.304,0.504-1.96c0.424-1.56,0.848-3.12,1.16-4.72c0.216-1.104,0.344-2.216,0.512-3.328
		c0.176-1.184,0.4-2.352,0.52-3.552c0.232-2.352,0.36-4.72,0.36-7.096s-0.128-4.744-0.36-7.096c-0.12-1.2-0.344-2.368-0.52-3.552
		c-0.168-1.112-0.288-2.224-0.512-3.328c-0.32-1.6-0.744-3.16-1.16-4.72c-0.176-0.648-0.312-1.312-0.504-1.96
		c-0.512-1.704-1.12-3.352-1.752-5c-0.168-0.448-0.296-0.912-0.472-1.352c-0.016-0.032-0.04-0.064-0.056-0.096
		C455.928,354.6,430.112,336,400,336S344.072,354.6,333.336,380.896z M400,352c3.008,0,8.824,8.296,12.56,24h-25.12
		C391.176,360.296,396.992,352,400,352z M415.192,392c0.496,4.92,0.808,10.224,0.808,16s-0.312,11.08-0.808,16h-30.376
		c-0.504-4.92-0.816-10.224-0.816-16s0.312-11.08,0.808-16H415.192z M453.696,392.2c0.664,2.24,1.144,4.52,1.52,6.816
		c0.088,0.56,0.184,1.112,0.256,1.68c0.312,2.416,0.528,4.848,0.528,7.304s-0.216,4.888-0.536,7.312
		c-0.072,0.56-0.168,1.12-0.256,1.68c-0.376,2.296-0.856,4.576-1.52,6.816c-0.016,0.064-0.032,0.128-0.048,0.2h-22.408
		C431.72,418.736,432,413.368,432,408s-0.28-10.736-0.768-16h22.408C453.664,392.064,453.672,392.128,453.696,392.2z M400,464
		c-3.008,0-8.824-8.296-12.552-24h25.112C408.824,455.704,403.008,464,400,464z M368.768,424H346.36
		c-0.016-0.064-0.032-0.128-0.048-0.2c-0.664-2.24-1.144-4.52-1.52-6.816c-0.088-0.56-0.184-1.112-0.256-1.68
		c-0.32-2.416-0.536-4.848-0.536-7.304s0.216-4.888,0.536-7.312c0.072-0.56,0.168-1.12,0.256-1.68
		c0.376-2.296,0.856-4.576,1.52-6.816c0.016-0.064,0.032-0.128,0.048-0.2h22.408C368.28,397.264,368,402.632,368,408
		S368.28,418.736,368.768,424z M354.112,440h16.976c1.408,6.912,3.32,13.304,5.68,18.896C367.64,454.704,359.816,448.16,354.112,440
		z M423.232,458.896c2.36-5.592,4.272-11.976,5.68-18.896h16.976C440.184,448.16,432.36,454.704,423.232,458.896z M445.888,376
		h-16.976c-1.408-6.912-3.32-13.304-5.68-18.896C432.36,361.296,440.184,367.84,445.888,376z M376.768,357.104
		c-2.36,5.592-4.272,11.976-5.68,18.896h-16.976C359.816,367.84,367.64,361.296,376.768,357.104z"/>
	<path style="fill:#242A40;" d="M275.744,214.776l8.512-13.544c-26.888-16.888-61.624-16.888-88.512,0l8.512,13.544
		C225.968,201.136,254.032,201.136,275.744,214.776z"/>
	<path style="fill:#242A40;" d="M308.328,177.272c-41.504-26.672-95.144-26.672-136.648,0l8.648,13.464
		c36.248-23.296,83.104-23.296,119.352,0L308.328,177.272z"/>
	<path style="fill:#242A40;" d="M168.792,141.464l-20.688,11.552l7.8,13.968l20.688-11.552c39.704-22.168,87.12-22.168,126.824,0
		l20.688,11.552l7.8-13.968l-20.688-11.552C266.616,116.568,213.376,116.568,168.792,141.464z"/>
	<path style="fill:#242A40;" d="M264,240c0-13.232-10.768-24-24-24s-24,10.768-24,24s10.768,24,24,24S264,253.232,264,240z M240,248
		c-4.408,0-8-3.592-8-8s3.592-8,8-8c4.408,0,8,3.592,8,8C248,244.408,244.408,248,240,248z"/>
	<rect x="232" y="280" style="fill:#242A40;" width="16" height="64"/>
	<rect x="56" y="216" style="fill:#242A40;" width="16" height="16"/>
	<rect x="56" y="248" style="fill:#242A40;" width="16" height="16"/>
	<rect x="56" y="280" style="fill:#242A40;" width="16" height="16"/>
	<rect x="56" y="312" style="fill:#242A40;" width="16" height="16"/>
	<rect x="56" y="344" style="fill:#242A40;" width="16" height="16"/>
	
		<rect x="196.708" y="351.999" transform="matrix(-0.7071 0.7071 -0.7071 -0.7071 609.6702 467.4647)" style="fill:#242A40;" width="22.624" height="16"/>
	
		<rect x="164.708" y="383.998" transform="matrix(-0.7071 0.7071 -0.7071 -0.7071 577.6691 544.7169)" style="fill:#242A40;" width="22.624" height="16"/>
	
		<rect x="263.994" y="348.673" transform="matrix(-0.7071 0.7071 -0.7071 -0.7071 718.8711 422.2034)" style="fill:#242A40;" width="16" height="22.624"/>
	
		<rect x="295.993" y="380.673" transform="matrix(-0.7071 0.7071 -0.7071 -0.7071 796.1232 454.2046)" style="fill:#242A40;" width="16" height="22.624"/>
	<rect x="392" y="208" style="fill:#242A40;" width="16" height="16"/>
	<rect x="392" y="240" style="fill:#242A40;" width="16" height="16"/>
	<rect x="392" y="272" style="fill:#242A40;" width="16" height="16"/>
	<rect x="392" y="304" style="fill:#242A40;" width="16" height="16"/>
	<rect x="392" y="176" style="fill:#242A40;" width="16" height="16"/>
</g>
<g>
</g>
<g>
</g>
<g>
</g>
<g>
</g>
<g>
</g>
<g>
</g>
<g>
</g>
<g>
</g>
<g>
</g>
<g>
</g>
<g>
</g>
<g>
</g>
<g>
</g>
<g>
</g>
<g>
</g>
</svg>
