<?xml version="1.0" encoding="iso-8859-1"?>
<!-- Generator: Adobe Illustrator 19.0.0, SVG Export Plug-In . SVG Version: 6.00 Build 0)  -->
<svg version="1.1" id="Capa_1" xmlns="http://www.w3.org/2000/svg" xmlns:xlink="http://www.w3.org/1999/xlink" x="0px" y="0px"
	 viewBox="0 0 512 512" style="enable-background:new 0 0 512 512;" xml:space="preserve">
<path style="fill:#239999;" d="M504.399,90.405c0,19.365-6.641,37.168-17.783,51.261c-2.007,2.555-4.177,4.988-6.468,7.28
	c-14.985,14.985-35.688,24.252-58.551,24.252H90.399c-45.725,0-82.792-37.067-82.792-82.792c0-22.873,9.267-43.566,24.252-58.55
	c5.019-5.019,10.686-9.398,16.85-12.998c12.247-7.158,26.492-11.254,41.69-11.254h331.198
	C467.322,7.603,504.399,44.67,504.399,90.405z"/>
<path style="fill:#45B8C4;" d="M504.399,90.405c0,19.365-6.641,37.168-17.783,51.261c-12.247,7.158-26.492,11.254-41.7,11.254
	H113.718c-45.725,0-82.792-37.067-82.792-82.792c0-19.365,6.641-37.178,17.783-51.271c12.247-7.158,26.492-11.254,41.69-11.254
	h331.198C467.322,7.603,504.399,44.67,504.399,90.405z"/>
<path style="fill:#239999;" d="M421.597,338.799H90.403c-45.729,0-82.799-37.071-82.799-82.799l0,0
	c0-45.728,37.07-82.799,82.799-82.799h331.195c45.728,0,82.799,37.07,82.799,82.799l0,0
	C504.396,301.728,467.326,338.799,421.597,338.799z"/>
<path style="fill:#45B8C4;" d="M504.399,256.003c0,19.365-6.641,37.168-17.783,51.261c-12.247,7.158-26.492,11.254-41.7,11.254
	H113.718c-45.725,0-82.792-37.067-82.792-82.792c0-19.365,6.641-37.178,17.783-51.271c12.247-7.158,26.492-11.254,41.69-11.254
	h331.198C467.322,173.201,504.399,210.268,504.399,256.003z"/>
<path style="fill:#239999;" d="M421.597,504.396H90.403c-45.729,0-82.799-37.07-82.799-82.799l0,0
	c0-45.728,37.07-82.799,82.799-82.799h331.195c45.728,0,82.799,37.07,82.799,82.799l0,0
	C504.396,467.326,467.326,504.396,421.597,504.396z"/>
<path style="fill:#45B8C4;" d="M504.399,421.601c0,19.365-6.641,37.168-17.783,51.261c-12.247,7.158-26.492,11.254-41.7,11.254
	H113.718c-45.725,0-82.792-37.067-82.792-82.792c0-19.365,6.641-37.178,17.783-51.271c12.247-7.158,26.492-11.254,41.69-11.254
	h331.198C467.322,338.799,504.399,375.866,504.399,421.601z"/>
<path style="fill:#D8401D;" d="M455.054,90.405c0,14.245-8.902,26.411-21.453,31.237c-3.721,1.43-7.776,2.22-12.004,2.22
	c-18.483,0-33.457-14.985-33.457-33.457c0-18.483,14.975-33.457,33.457-33.457c4.228,0,8.283,0.781,12.004,2.22
	C446.153,63.984,455.054,76.15,455.054,90.405z"/>
<path style="fill:#F9572B;" d="M455.054,90.405c0,14.245-8.902,26.411-21.453,31.237c-12.552-4.816-21.463-16.992-21.463-31.237
	c0-14.255,8.912-26.421,21.463-31.237C446.153,63.984,455.054,76.15,455.054,90.405z"/>
<g>
	<circle style="fill:#D8401D;" cx="421.594" cy="256" r="33.457"/>
	<circle style="fill:#D8401D;" cx="421.594" cy="421.594" r="33.457"/>
</g>
<g>
	<path style="fill:#F9572B;" d="M455.054,256c0,14.245-8.902,26.411-21.453,31.237c-12.552-4.816-21.463-16.992-21.463-31.237
		c0-14.255,8.912-26.421,21.463-31.237C446.153,229.579,455.054,241.745,455.054,256z"/>
	<path style="fill:#F9572B;" d="M455.054,421.597c0,14.245-8.902,26.411-21.453,31.237c-12.552-4.816-21.463-16.992-21.463-31.237
		c0-14.255,8.912-26.421,21.463-31.237C446.153,395.176,455.054,407.342,455.054,421.597z"/>
</g>
<path d="M512,256c0-36.955-22.292-68.797-54.133-82.799C489.708,159.2,512,127.358,512,90.403C512,40.554,471.446,0,421.597,0
	H90.403C40.554,0,0,40.554,0,90.403c0,36.955,22.292,68.797,54.133,82.799C22.292,187.203,0,219.045,0,256
	s22.292,68.797,54.133,82.799C22.292,352.8,0,384.642,0,421.597C0,471.446,40.554,512,90.403,512h331.195
	C471.446,512,512,471.446,512,421.597c0-36.955-22.292-68.797-54.133-82.799C489.708,324.797,512,292.955,512,256z M15.208,90.403
	c0-41.463,33.732-75.195,75.195-75.195h331.195c41.462,0,75.194,33.732,75.194,75.195s-33.732,75.195-75.195,75.195H90.403
	C48.94,165.597,15.208,131.865,15.208,90.403z M496.792,421.597c0,41.463-33.732,75.195-75.195,75.195H90.403
	c-41.463,0-75.195-33.732-75.195-75.195s33.732-75.195,75.195-75.195h331.195C463.06,346.403,496.792,380.135,496.792,421.597z
	 M421.597,331.195H90.403c-41.463,0-75.195-33.732-75.195-75.195s33.732-75.195,75.195-75.195h331.195
	c41.463,0,75.195,33.732,75.195,75.195S463.06,331.195,421.597,331.195z"/>
<path d="M359.417,48.328H81.619c-4.199,0-7.604,3.405-7.604,7.604s3.405,7.604,7.604,7.604h277.798c4.199,0,7.604-3.405,7.604-7.604
	S363.617,48.328,359.417,48.328z"/>
<path d="M359.417,82.799H249.922c-4.199,0-7.604,3.405-7.604,7.604c0,4.199,3.405,7.604,7.604,7.604h109.496
	c4.199,0,7.604-3.405,7.604-7.604C367.022,86.204,363.617,82.799,359.417,82.799z"/>
<path d="M81.619,98.007h142.954c4.199,0,7.604-3.405,7.604-7.604c0-4.199-3.405-7.604-7.604-7.604H81.619
	c-4.199,0-7.604,3.405-7.604,7.604C74.015,94.602,77.419,98.007,81.619,98.007z"/>
<path d="M359.417,117.27H81.619c-4.199,0-7.604,3.405-7.604,7.604c0,4.199,3.405,7.604,7.604,7.604h277.798
	c4.199,0,7.604-3.405,7.604-7.604S363.617,117.27,359.417,117.27z"/>
<path d="M462.658,90.403c0-22.642-18.42-41.061-41.061-41.061c-22.642,0-41.061,18.42-41.061,41.061s18.42,41.061,41.061,41.061
	C444.239,131.464,462.658,113.045,462.658,90.403z M395.744,90.403c0-14.256,11.598-25.853,25.853-25.853
	s25.853,11.598,25.853,25.853s-11.598,25.853-25.853,25.853S395.744,104.659,395.744,90.403z"/>
<path d="M359.417,213.925h-32.443c-4.199,0-7.604,3.405-7.604,7.604s3.405,7.604,7.604,7.604h32.443
	c4.199,0,7.604-3.405,7.604-7.604S363.617,213.925,359.417,213.925z"/>
<path d="M81.619,229.133h220.008c4.199,0,7.604-3.405,7.604-7.604s-3.405-7.604-7.604-7.604H81.619
	c-4.199,0-7.604,3.405-7.604,7.604S77.419,229.133,81.619,229.133z"/>
<path d="M359.417,248.396H81.619c-4.199,0-7.604,3.405-7.604,7.604c0,4.199,3.405,7.604,7.604,7.604h277.798
	c4.199,0,7.604-3.405,7.604-7.604C367.021,251.801,363.617,248.396,359.417,248.396z"/>
<path d="M359.417,282.867H81.619c-4.199,0-7.604,3.405-7.604,7.604c0,4.199,3.405,7.604,7.604,7.604h277.798
	c4.199,0,7.604-3.405,7.604-7.604C367.021,286.272,363.617,282.867,359.417,282.867z"/>
<path d="M421.597,214.939c-22.642,0-41.061,18.42-41.061,41.061c0,22.642,18.42,41.061,41.061,41.061
	c22.642,0,41.061-18.42,41.061-41.061C462.658,233.358,444.239,214.939,421.597,214.939z M421.597,281.853
	c-14.256,0-25.853-11.598-25.853-25.853c0-14.256,11.598-25.853,25.853-25.853s25.853,11.598,25.853,25.853
	C447.451,270.256,435.853,281.853,421.597,281.853z"/>
<path d="M74.015,387.126c0,4.199,3.405,7.604,7.604,7.604h277.798c4.199,0,7.604-3.405,7.604-7.604c0-4.199-3.405-7.604-7.604-7.604
	H81.619C77.419,379.522,74.015,382.926,74.015,387.126z"/>
<path d="M359.417,413.993H159.688c-4.199,0-7.604,3.405-7.604,7.604s3.405,7.604,7.604,7.604h199.73
	c4.199,0,7.604-3.405,7.604-7.604S363.617,413.993,359.417,413.993z"/>
<path d="M81.619,429.201h52.721c4.199,0,7.604-3.405,7.604-7.604s-3.405-7.604-7.604-7.604H81.619c-4.199,0-7.604,3.405-7.604,7.604
	S77.419,429.201,81.619,429.201z"/>
<path d="M359.417,448.464H81.619c-4.199,0-7.604,3.405-7.604,7.604s3.405,7.604,7.604,7.604h277.798
	c4.199,0,7.604-3.405,7.604-7.604S363.617,448.464,359.417,448.464z"/>
<path d="M421.597,462.658c22.642,0,41.061-18.42,41.061-41.061c0-22.642-18.42-41.061-41.061-41.061
	c-22.642,0-41.061,18.42-41.061,41.061C380.536,444.239,398.957,462.658,421.597,462.658z M421.597,395.744
	c14.256,0,25.853,11.598,25.853,25.853s-11.598,25.853-25.853,25.853s-25.853-11.598-25.853-25.853S407.342,395.744,421.597,395.744
	z"/>
<g>
</g>
<g>
</g>
<g>
</g>
<g>
</g>
<g>
</g>
<g>
</g>
<g>
</g>
<g>
</g>
<g>
</g>
<g>
</g>
<g>
</g>
<g>
</g>
<g>
</g>
<g>
</g>
<g>
</g>
</svg>
